<?xml version="1.0" encoding="UTF-8"?>
<!DOCTYPE svg PUBLIC "-//W3C//DTD SVG 1.1//EN" "http://www.w3.org/Graphics/SVG/1.1/DTD/svg11.dtd">
<svg xmlns="http://www.w3.org/2000/svg" version="1.1" width="64px" height="63px" style="shape-rendering:geometricPrecision; text-rendering:geometricPrecision; image-rendering:optimizeQuality; fill-rule:evenodd; clip-rule:evenodd" xmlns:xlink="http://www.w3.org/1999/xlink">
<g><path style="opacity:0.975" fill="#d19f4d" d="M 23.5,-0.5 C 28.5,-0.5 33.5,-0.5 38.5,-0.5C 51.1319,3.46515 59.4652,11.7985 63.5,24.5C 63.5,28.1667 63.5,31.8333 63.5,35.5C 60.3395,49.3259 52.0062,58.3259 38.5,62.5C 33.5,62.5 28.5,62.5 23.5,62.5C 11.1667,58.8333 3.16667,50.8333 -0.5,38.5C -0.5,33.5 -0.5,28.5 -0.5,23.5C 3.16667,11.1667 11.1667,3.16667 23.5,-0.5 Z"/></g>
<g><path style="opacity:1" fill="#2a2c31" d="M 24.5,0.5 C 35.3324,-0.422144 44.8324,2.57786 53,9.5C 55.5098,12.1992 57.1765,15.1992 58,18.5C 51.9516,14.7131 45.785,14.5464 39.5,18C 36.6223,20.7087 33.9557,23.542 31.5,26.5C 28.2913,22.1265 24.2913,18.6265 19.5,16C 13.0744,14.35 7.57443,15.85 3,20.5C 4.19977,16.2821 6.36644,12.4488 9.5,9C 13.9921,5.1277 18.9921,2.29437 24.5,0.5 Z"/></g>
<g><path style="opacity:1" fill="#2b2c31" d="M 10.5,19.5 C 13.9783,19.1842 17.3117,19.6842 20.5,21C 23.538,23.7026 26.2046,26.7026 28.5,30C 25.8333,34 22.5,37.3333 18.5,40C 8.17799,41.3437 3.34466,36.8437 4,26.5C 5.69406,23.6424 7.86073,21.309 10.5,19.5 Z"/></g>
<g><path style="opacity:1" fill="#2a2c31" d="M 44.5,19.5 C 54.8261,18.661 59.6594,23.3276 59,33.5C 55.2303,40.4136 49.7303,42.2469 42.5,39C 39.462,36.2974 36.7954,33.2974 34.5,30C 37.363,25.9723 40.6963,22.4723 44.5,19.5 Z"/></g>
<g><path style="opacity:1" fill="#c1944a" d="M 12.5,25.5 C 19.4863,25.331 21.153,28.1643 17.5,34C 12.6466,35.1296 10.1466,33.2962 10,28.5C 10.6979,27.3094 11.5313,26.3094 12.5,25.5 Z"/></g>
<g><path style="opacity:1" fill="#323133" d="M 13.5,26.5 C 18.4928,26.997 19.4928,29.1637 16.5,33C 11.3823,32.8242 10.3823,30.6576 13.5,26.5 Z"/></g>
<g><path style="opacity:1" fill="#c4964b" d="M 51.5,26.5 C 53.0281,26.5173 53.5281,27.184 53,28.5C 50.6667,30.8333 48.3333,33.1667 46,35.5C 41.1876,31.0103 41.6876,29.8436 47.5,32C 48.6647,30.0083 49.998,28.175 51.5,26.5 Z"/></g>
<g><path style="opacity:1" fill="#2a2c31" d="M 30.5,33.5 C 34.3117,37.4613 38.6451,40.9613 43.5,44C 49.2723,45.2896 54.4389,44.1229 59,40.5C 59.1667,41 59.3333,41.5 59.5,42C 52.5925,56.8734 40.9258,63.2068 24.5,61C 12.2378,58.0063 4.73783,50.5063 2,38.5C 8.22072,45.0459 15.3874,46.2125 23.5,42C 26.4234,39.5838 28.7567,36.7504 30.5,33.5 Z"/></g>
</svg>
