<svg width="64" height="63" viewBox="0 0 64 63" fill="none" xmlns="http://www.w3.org/2000/svg">
<rect x="0.5" y="0.5" width="62" height="62" rx="31" fill="#272A31"/>
<rect x="0.5" y="0.5" width="62" height="62" rx="31" stroke="#DDA74F"/>
<path d="M22.7202 22.806L29.3802 30.5156L22.7242 38.2253C21.1798 39.7245 19.2196 40.7409 17.09 41.1466C14.9604 41.5522 12.7565 41.329 10.7554 40.5051C8.75436 39.6811 7.04541 38.2932 5.84346 36.5158C4.64151 34.7384 4.00022 32.6508 4.00022 30.5156C4.00022 28.3804 4.64151 26.2929 5.84346 24.5155C7.04541 22.7381 8.75436 21.3501 10.7554 20.5262C12.7565 19.7022 14.9604 19.4791 17.09 19.8847C19.2196 20.2904 21.1798 21.3067 22.7242 22.806H22.7202ZM32.0002 27.4759L25.6642 20.1324L25.6082 20.0734C23.5103 18.0088 20.8375 16.6029 17.9279 16.0334C15.0183 15.464 12.0025 15.7567 9.26183 16.8743C6.52116 17.992 4.17872 19.8846 2.53067 22.3127C0.882626 24.7408 0.00299072 27.5954 0.00299072 30.5156C0.00299072 33.4358 0.882626 36.2905 2.53067 38.7186C4.17872 41.1467 6.52116 43.0392 9.26183 44.1569C12.0025 45.2746 15.0183 45.5672 17.9279 44.9978C20.8375 44.4284 23.5103 43.0225 25.6082 40.9579L25.6642 40.8988L32.0002 33.5554L38.3362 40.8988L38.3922 40.9579C40.4901 43.0225 43.1629 44.4284 46.0725 44.9978C48.9821 45.5672 51.9979 45.2746 54.7386 44.1569C57.4792 43.0392 59.8217 41.1467 61.4697 38.7186C63.1178 36.2905 63.9974 33.4358 63.9974 30.5156C63.9974 27.5954 63.1178 24.7408 61.4697 22.3127C59.8217 19.8846 57.4792 17.992 54.7386 16.8743C51.9979 15.7567 48.9821 15.464 46.0725 16.0334C43.1629 16.6029 40.4901 18.0088 38.3922 20.0734L38.3362 20.1324L32.0002 27.4759ZM34.6242 30.5156L41.2762 22.806C42.8206 21.3067 44.7808 20.2904 46.9104 19.8847C49.04 19.4791 51.2439 19.7022 53.2449 20.5262C55.246 21.3501 56.955 22.7381 58.1569 24.5155C59.3589 26.2929 60.0002 28.3804 60.0002 30.5156C60.0002 32.6508 59.3589 34.7384 58.1569 36.5158C56.955 38.2932 55.246 39.6811 53.2449 40.5051C51.2439 41.329 49.04 41.5522 46.9104 41.1466C44.7808 40.7409 42.8206 39.7245 41.2762 38.2253L34.6242 30.5156Z" fill="#DDA74F"/>
<path fill-rule="evenodd" clip-rule="evenodd" d="M53.9418 26.9437C54.095 27.1132 54.1811 27.343 54.1811 27.5826C54.1811 27.8221 54.095 28.0519 53.9418 28.2214L47.2905 35.5705C47.2137 35.6552 47.1225 35.7223 47.022 35.7677C46.9215 35.8131 46.8139 35.8359 46.7054 35.8349C46.5969 35.8339 46.4896 35.809 46.3898 35.7618C46.2901 35.7145 46.1998 35.6458 46.1243 35.5596L43.5029 32.5655C43.3534 32.3929 43.2718 32.162 43.276 31.9231C43.2801 31.6842 43.3697 31.4569 43.5251 31.2908C43.6805 31.1247 43.8891 31.0332 44.1053 31.0365C44.3215 31.0398 44.5277 31.1375 44.6789 31.3083L46.7222 33.6419L52.7854 26.9437C52.9389 26.7744 53.1468 26.6794 53.3636 26.6794C53.5804 26.6794 53.7884 26.7744 53.9418 26.9437Z" fill="#DDA74F"/>
<path fill-rule="evenodd" clip-rule="evenodd" d="M10.4314 30.4744C10.4314 27.9256 12.6436 25.8593 15.3726 25.8593C18.1015 25.8593 20.3137 27.9256 20.3137 30.4744C20.3137 33.0233 18.1015 35.0895 15.3726 35.0895C12.6436 35.0895 10.4314 33.0233 10.4314 30.4744ZM15.3726 27.1779C13.4233 27.1779 11.8432 28.6538 11.8432 30.4744C11.8432 32.2951 13.4233 33.7709 15.3726 33.7709C17.3219 33.7709 18.902 32.2951 18.902 30.4744C18.902 28.6538 17.3219 27.1779 15.3726 27.1779Z" fill="#DDA74F"/>
</svg>
