<svg width="120" height="120" viewBox="0 0 120 120" fill="none" xmlns="http://www.w3.org/2000/svg">
<circle cx="60" cy="60" r="59.5" stroke="#DDA74F"/>
<path d="M42.6001 47.286L55.0876 59.8906L42.6076 72.4953C39.7119 74.9465 36.0365 76.6082 32.0435 77.2713C28.0505 77.9345 23.9182 77.5697 20.1662 76.2226C16.4142 74.8755 13.2099 72.6063 10.9562 69.7004C8.70259 66.7945 7.50018 63.3815 7.50018 59.8906C7.50018 56.3998 8.70259 52.9868 10.9562 50.0809C13.2099 47.175 16.4142 44.9058 20.1662 43.5587C23.9182 42.2116 28.0505 41.8467 32.0435 42.5099C36.0365 43.1731 39.7119 44.8348 42.6076 47.286H42.6001ZM60.0001 54.9209L48.1201 42.9149L48.0151 42.8184C44.0815 39.4429 39.0701 37.1444 33.6146 36.2134C28.159 35.2824 22.5044 35.7609 17.3657 37.5882C12.2269 39.4155 7.83486 42.5097 4.74477 46.4795C1.65469 50.4493 0.00537109 55.1163 0.00537109 59.8906C0.00537109 64.6649 1.65469 69.332 4.74477 73.3018C7.83486 77.2715 12.2269 80.3657 17.3657 82.1931C22.5044 84.0204 28.159 84.4988 33.6146 83.5679C39.0701 82.6369 44.0815 80.3384 48.0151 76.9629L48.1201 76.8663L60.0001 64.8604L71.8801 76.8663L71.9851 76.9629C75.9188 80.3384 80.9302 82.6369 86.3857 83.5679C91.8412 84.4988 97.4958 84.0204 102.635 82.1931C107.773 80.3657 112.165 77.2715 115.255 73.3018C118.346 69.332 119.995 64.6649 119.995 59.8906C119.995 55.1163 118.346 50.4493 115.255 46.4795C112.165 42.5097 107.773 39.4155 102.635 37.5882C97.4958 35.7609 91.8412 35.2824 86.3857 36.2134C80.9302 37.1444 75.9188 39.4429 71.9851 42.8184L71.8801 42.9149L60.0001 54.9209ZM64.9201 59.8906L77.3926 47.286C80.2884 44.8348 83.9638 43.1731 87.9567 42.5099C91.9497 41.8467 96.082 42.2116 99.834 43.5587C103.586 44.9058 106.79 47.175 109.044 50.0809C111.298 52.9868 112.5 56.3998 112.5 59.8906C112.5 63.3815 111.298 66.7945 109.044 69.7004C106.79 72.6063 103.586 74.8755 99.834 76.2226C96.082 77.5697 91.9497 77.9345 87.9567 77.2713C83.9638 76.6082 80.2884 74.9465 77.3926 72.4953L64.9201 59.8906Z" fill="#DDA74F"/>
<path fill-rule="evenodd" clip-rule="evenodd" d="M18.2915 59.5C18.2915 53.862 22.8619 49.2916 28.4998 49.2916C34.1378 49.2916 38.7082 53.862 38.7082 59.5C38.7082 65.1379 34.1378 69.7083 28.4998 69.7083C22.8619 69.7083 18.2915 65.1379 18.2915 59.5ZM28.4998 52.2083C24.4727 52.2083 21.2082 55.4728 21.2082 59.5C21.2082 63.5271 24.4727 66.7916 28.4998 66.7916C32.527 66.7916 35.7915 63.5271 35.7915 59.5C35.7915 55.4728 32.527 52.2083 28.4998 52.2083Z" fill="#DDA74F"/>
<path fill-rule="evenodd" clip-rule="evenodd" d="M102.153 50.5501C102.481 50.9016 102.665 51.3782 102.665 51.8751C102.665 52.3719 102.481 52.8485 102.153 53.2001L87.9269 68.4426C87.7626 68.6184 87.5674 68.7574 87.3525 68.8515C87.1377 68.9457 86.9074 68.9931 86.6753 68.991C86.4432 68.9889 86.2137 68.9374 86.0004 68.8393C85.787 68.7413 85.594 68.5988 85.4325 68.4201L79.8255 62.2101C79.5058 61.8521 79.3313 61.373 79.3402 60.8776C79.3491 60.3822 79.5406 59.9107 79.873 59.5661C80.2054 59.2216 80.6515 59.032 81.1139 59.0388C81.5764 59.0457 82.0175 59.2483 82.3409 59.6026L86.7112 64.4426L99.6799 50.5501C100.008 50.1989 100.453 50.0017 100.917 50.0017C101.38 50.0017 101.825 50.1989 102.153 50.5501Z" fill="#DDA74F"/>
</svg>
